<mxfile host="app.diagrams.net" modified="2023-12-12T00:06:00.976Z" agent="Mozilla/5.0 (Macintosh; Intel Mac OS X 10_15_7) AppleWebKit/537.36 (KHTML, like Gecko) Chrome/120.0.0.0 Safari/537.36" version="22.1.7" etag="FPL8d8Ane9MMIls53-16" type="github">
  <diagram name="Page-1" id="2Q1xt4RQYPXy1PZpNHjP">
    <mxGraphModel>
      <root>
        <mxCell id="0" />
        <mxCell id="1" parent="0" />
      </root>
    </mxGraphModel>
  </diagram>
</mxfile>
